<?xml version="1.0" encoding="UTF-8"?>
<svg id="Layer_2" data-name="Layer 2" xmlns="http://www.w3.org/2000/svg" viewBox="0 0 1089.08 566.08">
  <defs>
    <style>
      .cls-1 {
        stroke-miterlimit: 10;
      }

      .cls-1, .cls-2 {
        fill: none;
        stroke: #000;
      }
    </style>
  </defs>
  <g id="Layer_1-2" data-name="Layer 1">
    <g>
      <path class="cls-2" d="M135.37,5.8H9.17v298.54h66.87v-123.11h48v-62.88h-48v-52.31h59.32V5.8Z"/>
      <path class="cls-2" d="M441.2,332.89h-52.74l.08,110h27.87v-45.18h20.06v-25.61h-20.06v-14.68h24.79v-24.53Z"/>
      <path class="cls-1" d="M929.03,5.8v60.24h46.05v238.3h66.87V66.04h46.05V5.8h-158.97Z"/>
      <path class="cls-1" d="M61.85,332.81v25.81h14.54v84.35h29.57v-84.35h14.54v-25.81h-58.66Z"/>
      <path class="cls-2" d="M431.55,304.34h-124.04V5.8h69.03v234.07h55.01v64.46Z"/>
      <path class="cls-2" d="M566.98,304.34h-124.04V5.8h69.03v234.07h55.01v64.46Z"/>
      <g>
        <path class="cls-2" d="M672.2,85.09c0-12.77-2.7-18.62-12.4-18.62-9.17,0-11.86,5.85-11.86,18.62l.54,146.3c0,12.77,2.7,18.62,12.4,18.62,9.17,0,11.86-5.85,11.86-18.62l-.54-146.3Z"/>
        <path class="cls-2" d="M742.31,69.72c0-31.61-17.82-69.22-81.98-69.22-60.59,0-81.98,37.61-81.98,69.22v171.13c0,31.5,17.82,71.4,81.98,71.4,60.59,0,81.98-39.9,81.98-71.4V69.72Z"/>
      </g>
      <g>
        <path class="cls-2" d="M164.15,361.62c0-4.75-1.11-6.93-5.11-6.93-3.78,0-4.89,2.18-4.89,6.93l.22,54.44c0,4.75,1.11,6.93,5.11,6.93,3.78,0,4.89-2.18,4.89-6.93l-.22-54.44Z"/>
        <path class="cls-2" d="M193.02,355.64c0-11.76-7.34-25.76-33.76-25.76-24.95,0-33.76,13.99-33.76,25.76v63.68c0,11.72,7.34,26.57,33.76,26.57,24.95,0,33.76-14.85,33.76-26.57v-63.68Z"/>
      </g>
      <g>
        <path class="cls-2" d="M484.91,361.62c0-4.75-1.11-6.93-5.11-6.93-3.78,0-4.89,2.18-4.89,6.93l.22,54.44c0,4.75,1.11,6.93,5.11,6.93,3.78,0,4.89-2.18,4.89-6.93l-.22-54.44Z"/>
        <path class="cls-2" d="M513.78,355.64c0-11.76-7.34-25.76-33.76-25.76-24.95,0-33.76,13.99-33.76,25.76v63.68c0,11.72,7.34,26.57,33.76,26.57,24.95,0,33.76-14.85,33.76-26.57v-63.68Z"/>
      </g>
      <path class="cls-2" d="M1003.05,497.39l-.13-16.04c0-4.75-1.11-6.93-5.11-6.93-3.78,0-4.89,2.18-4.89,6.93l.22,54.41c0,4.75,1.11,6.93,5.11,6.93,3.78,0,4.89-2.18,4.89-6.93l-.09-21.38,28.46.08.28,24.56c0,11.71-8.81,26.55-33.76,26.55-26.42,0-33.76-14.84-33.76-26.55v-63.65c0-11.76,8.81-25.74,33.76-25.74,26.42,0,33.76,13.99,33.76,25.74l-.2,22.01h-28.54Z"/>
      <path class="cls-2" d="M836.21,251.54c9.17,0,11.86-5.63,11.86-17.93V5.01h69.57v237.71c0,30.32-17.82,68.73-78.41,68.73-64.15,0-85.54-38.41-85.54-68.73V5.01h70.11v228.6c0,12.29,2.7,17.93,12.4,17.93"/>
      <g>
        <path class="cls-2" d="M190.42,304.34h-60.94L165.08,5.8h52.85l36.13,10.57,42.07,287.97h-65.8l-5.93-44.91h-30.74l-3.24,44.91Z"/>
        <polygon class="cls-2" points="197.77 200.96 218.04 200.96 207.9 118.77 197.77 200.96"/>
      </g>
      <g>
        <polygon class="cls-2" points="54.65 332.81 68.32 442.96 41.2 442.96 39.94 428.9 28.95 428.9 27.69 442.96 .57 442.96 14.24 332.81 54.65 332.81"/>
        <polygon class="cls-2" points="31.1 404.06 37.94 404.06 34.44 378.68 31.1 404.06"/>
      </g>
      <g>
        <polygon class="cls-2" points="500.16 452.89 513.83 562.89 486.71 562.89 485.45 548.84 474.46 548.84 473.2 562.89 446.08 562.89 459.75 452.89 500.16 452.89"/>
        <polygon class="cls-2" points="476.61 524.04 483.45 524.04 479.95 498.69 476.61 524.04"/>
      </g>
      <g>
        <polygon class="cls-2" points="947.97 452.89 961.64 562.89 934.52 562.89 933.26 548.84 922.27 548.84 921.01 562.89 893.89 562.89 907.56 452.89 947.97 452.89"/>
        <polygon class="cls-2" points="924.42 524.04 931.26 524.04 927.76 498.69 924.42 524.04"/>
      </g>
      <polygon class="cls-2" points="231.56 442.96 222.24 390.12 222.24 442.96 198.1 442.96 198.1 332.81 232.28 332.81 237.3 377.56 242.31 332.81 276.49 332.81 276.49 442.96 252.35 442.96 252.35 390.12 243.03 442.96 231.56 442.96"/>
      <path class="cls-2" d="M348.2,408.7c0,30.21-14.18,37.19-33.34,37.19-31.09-.56-33.34-11.46-33.34-41.64h28.78s0,5.53,0,9.9-.03,7.99,2.78,7.99c3.19,0,3.19-3.46,3.19-7.71.26-26.55-34.73-13.75-34.73-53.78-.1-22.73,13.1-30.77,33.24-30.77,18.5,0,33.42,6.87,33.34,36.68h-30.33s0-1.91,0-6.28.03-6.66-2.78-6.66c-3.19,0-3.19,2.31-3.19,6.56-.03,18.69,36.38,13.23,36.38,48.51Z"/>
      <g>
        <path class="cls-2" d="M588.24,442.89c-2.9-3.05-2.94-6.95-2.98-9.14v-34.76c0-9.71-8.13-15.46-12.31-15.37,4.18-.09,12.18-9.08,12.18-17.18v-13.82c.13-11.17-6.72-19.72-22.28-19.72h-44.94v110h30.14v-42.81s7.04-.42,7.04,6.87v28.26c.16,4.04,1.7,7.35,3.42,7.67h29.72Z"/>
        <path class="cls-2" d="M554.75,357.82c0-7.29-6.69-6.87-6.69-6.87v25.72s6.69.42,6.69-6.87v-11.97Z"/>
      </g>
      <g>
        <path class="cls-2" d="M799,520.68v42.2h-30.14v-110h44.94c15.55,0,19.41,8.55,19.28,19.72v30.8c0,8.1-8,17.09-12.18,17.18l-21.9.1Z"/>
        <path class="cls-2" d="M805.68,477.78c0-7.3-6.69-6.88-6.69-6.88v25.75s6.69.42,6.69-6.88v-11.99Z"/>
      </g>
      <g>
        <path class="cls-2" d="M588.24,562.89c-2.9-3.05-2.94-6.95-2.98-9.14v-34.76c0-9.71-8.13-15.46-12.31-15.37,4.18-.09,12.18-9.08,12.18-17.18v-13.82c.13-11.17-6.72-19.72-22.28-19.72h-44.94v110h30.14v-42.81s7.04-.42,7.04,6.87v28.26c.16,4.04,1.7,7.35,3.42,7.67h29.72Z"/>
        <path class="cls-2" d="M555.98,475.35c0-7.29-6.69-6.87-6.69-6.87v25.72s6.69.42,6.69-6.87v-11.97Z"/>
      </g>
      <polygon class="cls-2" points="398.6 562.89 365.33 562.89 351.61 453.04 380.09 453.04 383.58 514.49 387.97 452.89 415.66 452.96 420.05 514.41 423.54 452.96 452.03 452.96 438.3 562.81 405.03 562.81 401.19 512.26 398.6 562.89"/>
      <g>
        <path class="cls-2" d="M661.4,438.36c6.45.42,20.54-30.1,2.82-31.56-17.72-1.46-5.81,31.37-2.82,31.56Z"/>
        <path class="cls-2" d="M634.75,447.78h49.16c19.76-8.73,27.99-63.3-17.51-65.66-52.45-2.02-46.51,57.1-31.65,65.66Z"/>
        <polygon class="cls-2" points="640.03 453.88 683.26 453.88 696.22 482.79 709.81 453.21 752.34 453.21 721.22 512.34 758.57 563.39 705.66 563.39 697.37 548.64 688.03 563.17 637.2 563.17 672.47 513.37 640.03 453.88"/>
        <path class="cls-2" d="M634.09,454.24l15.56,26.97c-21.78,11.41-21.78,42.53,2.07,51.87l-20.75,30.08c-43.57-5.19-59.13-95.44,3.11-108.92Z"/>
      </g>
      <polygon class="cls-2" points="839.58 562.89 889.58 562.89 889.58 536.16 868.58 536.16 868.58 520.74 885.58 520.74 885.58 492.98 868.58 492.98 868.58 479.62 889.58 479.62 889.58 452.89 839.58 452.89 839.58 562.89"/>
      <polygon class="cls-2" points="1038.58 562.89 1088.58 562.89 1088.58 536.16 1067.58 536.16 1067.58 520.74 1084.58 520.74 1084.58 492.98 1067.58 492.98 1067.58 479.62 1088.58 479.62 1088.58 452.89 1038.58 452.89 1038.58 562.89"/>
    </g>
  </g>
</svg>