<?xml version="1.0" encoding="UTF-8"?>
<svg id="Layer_2" xmlns="http://www.w3.org/2000/svg" version="1.1" viewBox="0 0 1089.1 236.7">
  <!-- Generator: Adobe Illustrator 29.8.2, SVG Export Plug-In . SVG Version: 2.1.1 Build 3)  -->
  <defs>
    <style>
      .st0, .st1 {
        fill: #363734;
        stroke: #363734;
      }

      .st1 {
        stroke-miterlimit: 10;
      }
    </style>
  </defs>
  <g id="Layer_2-2">
    <g>
      <path class="st0" d="M441.2,3.5h-52.7v110h27.9v-45.2h20.1v-25.6h-20.1v-14.7h24.8V3.5h0Z"/>
      <path class="st1" d="M61.8,3.4v25.8h14.5v84.3h29.6V29.2h14.5V3.4h-58.7,0Z"/>
      <path class="st0" d="M164.4,85.7c0,4.8-1.1,6.9-4.9,6.9s-5.1-2.2-5.1-6.9l-.2-53.4c0-4.8,1.1-6.9,4.9-6.9s5.1,2.2,5.1,6.9l.2,53.4ZM193,26.3c0-11.8-7.3-25.8-33.8-25.8s-33.8,14-33.8,25.8v62.7c0,11.7,7.3,26.6,33.8,26.6s33.8-14.8,33.8-26.6V26.3Z"/>
      <path class="st0" d="M485.1,85.7c0,4.8-1.1,6.9-4.9,6.9s-5.1-2.2-5.1-6.9l-.2-53.4c0-4.8,1.1-6.9,4.9-6.9s5.1,2.2,5.1,6.9l.2,53.4ZM513.8,26.3c0-11.8-7.3-25.8-33.8-25.8s-33.8,14-33.8,25.8v62.7c0,11.7,7.3,26.6,33.8,26.6s33.8-14.8,33.8-26.6V26.3Z"/>
      <path class="st0" d="M1003,167.9v-16c0-4.8-1.2-6.9-5.2-6.9s-4.9,2.2-4.9,6.9l.2,53.4c0,4.8,1.1,6.9,5.1,6.9s4.9-2.2,4.9-6.9v-20.4h28.4l.3,23.6c0,11.7-8.8,26.6-33.8,26.6s-33.8-14.8-33.8-26.6v-63.7c0-11.8,8.8-24.7,33.8-24.7s33.8,13,33.8,24.7l-.2,23h-28.6Z"/>
      <path class="st0" d="M54.7,3.4l13.7,110.2h-27.1l-1.3-14.1h-11l-1.3,14.1H.6L14.2,3.4h40.5ZM31.1,74.7h6.9l-3.5-25.4-3.4,25.4Z"/>
      <path class="st0" d="M500.2,123.4l13.7,110h-27.1l-1.3-14.1h-11l-1.3,14.1h-27.1l13.7-110h40.4,0ZM476.6,194.6h6.9l-3.5-25.4-3.4,25.4Z"/>
      <path class="st0" d="M948,123.4l13.7,110h-27.1l-1.3-14.1h-11l-1.3,14.1h-27.1l13.7-110h40.4,0ZM924.4,194.6h6.8l-3.5-25.4-3.3,25.4Z"/>
      <polygon class="st0" points="231.6 113.6 222.2 60.7 222.2 113.6 198.1 113.6 198.1 3.4 232.3 3.4 237.3 48.2 242.3 3.4 276.5 3.4 276.5 113.6 252.4 113.6 252.4 60.7 243 113.6 231.6 113.6"/>
      <path class="st0" d="M348.2,79.3c0,30.2-14.2,37.2-33.3,37.2-31.1-.6-33.3-11.5-33.3-41.6h28.8v9.9c0,4.4,0,8,2.8,8s3.2-3.5,3.2-7.7c.3-26.5-34.7-13.8-34.7-53.8-.1-22.7,13.1-30.8,33.2-30.8s33.4,6.9,33.3,36.7h-30.3v-6.3c0-4.4,0-6.7-2.8-6.7s-3.2,2.3-3.2,6.6c0,18.7,36.4,13.2,36.4,48.5,0,0-.1,0-.1,0Z"/>
      <path class="st0" d="M558.5,113.5c-1.7-.3-3.3-3.6-3.4-7.7v-28.3c0-7.3-7-6.9-7-6.9v42.8h-30.1V3.5h44.9c15.5,0,22.4,8.5,22.3,19.7v13.8c0,8.1-8,17.1-12.2,17.2,4.2,0,12.3,5.7,12.3,15.4v34.8c0,2.2,0,6.1,3,9.1,0,0-29.8,0-29.8,0ZM554.8,28.4c0-7.3-6.7-6.9-6.7-6.9v25.7s6.7.4,6.7-6.9v-12h0Z"/>
      <path class="st0" d="M799,191.2v42.2h-30.1v-110h44.9c15.5,0,19.4,6.6,19.3,17.7v30.8c0,8.1-8,19.1-12.2,19.2h-21.9ZM805.7,148.3c0-7.3-6.7-6.9-6.7-6.9v25.8s6.7.4,6.7-6.9v-12h0Z"/>
      <path class="st0" d="M558.5,233.4c-1.7-.3-3.3-3.6-3.4-7.7v-28.3c0-7.3-7-6.9-7-6.9v42.8h-30.1v-110h44.9c15.5,0,22.4,8.6,22.3,19.7v13.8c0,8.1-8,17.1-12.2,17.2,4.2,0,12.3,5.7,12.3,15.4v34.8c0,2.2,0,6.1,3,9.1h-29.8ZM556,145.9c0-7.3-6.7-6.9-6.7-6.9v25.7s6.7.4,6.7-6.9v-12h0Z"/>
      <polygon class="st0" points="398.6 233.4 365.3 233.4 351.6 123.6 380.1 123.6 383.6 185 388 123.4 415.7 123.5 420 184.9 423.5 123.5 452 123.5 438.3 233.3 405 233.3 401.2 182.8 398.6 233.4"/>
      <g>
        <path class="st0" d="M664.2,80.3c17.7,1.5,3.6,32-2.8,31.6-3-.2-14.9-33,2.8-31.6ZM634.8,118.3h49.2c19.8-8.7,28-63.3-17.5-65.7-52.5-2-46.5,57.1-31.7,65.7h0Z"/>
        <polygon class="st0" points="640 124.4 683.3 124.4 696.2 153.3 709.8 123.7 752.3 123.7 721.2 182.9 758.6 233.9 705.7 233.9 697.4 219.2 688 233.7 637.2 233.7 672.5 183.9 640 124.4"/>
        <path class="st0" d="M634.1,124.8l15.6,27c-21.8,11.4-21.8,42.5,2.1,51.9l-20.8,30.1c-43.6-5.2-59.1-95.4,3.1-108.9h0Z"/>
      </g>
      <polygon class="st0" points="839.6 233.4 889.6 233.4 889.6 206.7 868.6 206.7 868.6 191.3 885.6 191.3 885.6 163.5 868.6 163.5 868.6 150.1 889.6 150.1 889.6 123.4 839.6 123.4 839.6 233.4"/>
      <polygon class="st0" points="1038.6 233.4 1088.6 233.4 1088.6 206.7 1067.6 206.7 1067.6 191.3 1084.6 191.3 1084.6 163.5 1067.6 163.5 1067.6 150.1 1088.6 150.1 1088.6 123.4 1038.6 123.4 1038.6 233.4"/>
    </g>
  </g>
</svg>